<svg class="diagram-root" style="background: #f5f6f6" xmlns="http://www.w3.org/2000/svg" xmlns:xlink="http://www.w3.org/1999/xlink"><style>.diagram-root { font-family: "Helvetica Neue", sans-serif; font-size: 12px; } .t { overflow: visible; } .t-bg { y: 40; fill: #fff;   } .th { fill: #005aa0;   } .tht { fill: #fff; font-size: 14px;  } .tf { fill: #323c46; overflow: visible; } .tf.pk { fill: #005aa0; font-weight: bold; } .tf.fk { font-weight: bold; } .ty { fill: #adb1b5; font-weight: normal; text-anchor: end; } .r { fill: transparent; stroke: #c3c3c3; stroke-width: 1; } .l { stroke: 1; } .i { fill: #c2c7ce; stroke: #c2c7ce; } .i.ix { fill: #afb3b6; stroke: #000; } .fa { fill: transparent; overflow: visible; } .fa .bg.hover { fill: #f7f7f7; } .c { cy: 12; r: 4; stroke: #d2d2dc; fill: #d2d2dc; } .hr { fill: transparent; stroke: #323c46; stroke-opacity: 0.035; stroke-width: 13; } .dc { stroke: #fa5a3c; fill: #fa5a3c; } .x { stroke: white; stroke-width: 1; } .hl .th { fill: #1b9bff; } .hl .tht {  } .fhl .bg { fill: #e7f4ff; } .fhls .bg {  } .r.hl { stroke: #1b9bff; } .dim { opacity: 0.25; }</style><g class="drawing-wrapper" transform="translate(-187, -29) scale(1,1)"><g class="rs"><path d="M 685.49 371 m -1, 0 a 1,1 0 1,0 2,0 a 1,1 0 1,0 -2,0 M 685.49 371 m -0.5, 0 a 0.5,0.5 0 1,0 1,0 a 0.5,0.5 0 1,0 -1,0  M685.49 371 L685.49 371 697.49 371 M 685.49 377 m -1, 0 a 1,1 0 1,0 2,0 a 1,1 0 1,0 -2,0 M 685.49 377 m -0.5, 0 a 0.5,0.5 0 1,0 1,0 a 0.5,0.5 0 1,0 -1,0  M685.49 377 L685.49 377 692.49 371 685.49 365 M 685.49 365 m -1, 0 a 1,1 0 1,0 2,0 a 1,1 0 1,0 -2,0 M 685.49 365 m -0.5, 0 a 0.5,0.5 0 1,0 1,0 a 0.5,0.5 0 1,0 -1,0  M697.49 371 Q 724.12 371, 750.75 363 T 804 355 M 816 355 m -1, 0 a 1,1 0 1,0 2,0 a 1,1 0 1,0 -2,0 M 816 355 m -0.5, 0 a 0.5,0.5 0 1,0 1,0 a 0.5,0.5 0 1,0 -1,0  M816 355 L816 355 804 355 M810 361 L810 361 810 349" id="h1537058300" class="r"></path><path d="M 792 125 m -1, 0 a 1,1 0 1,0 2,0 a 1,1 0 1,0 -2,0 M 792 125 m -0.5, 0 a 0.5,0.5 0 1,0 1,0 a 0.5,0.5 0 1,0 -1,0  M792 125 L792 125 780 125 M 792 131 m -1, 0 a 1,1 0 1,0 2,0 a 1,1 0 1,0 -2,0 M 792 131 m -0.5, 0 a 0.5,0.5 0 1,0 1,0 a 0.5,0.5 0 1,0 -1,0  M792 131 L792 131 785 125 792 119 M 792 119 m -1, 0 a 1,1 0 1,0 2,0 a 1,1 0 1,0 -2,0 M 792 119 m -0.5, 0 a 0.5,0.5 0 1,0 1,0 a 0.5,0.5 0 1,0 -1,0  M780 125 Q 759.38 125, 738.75 235.5 T 697.49 346 M 685.49 346 m -1, 0 a 1,1 0 1,0 2,0 a 1,1 0 1,0 -2,0 M 685.49 346 m -0.5, 0 a 0.5,0.5 0 1,0 1,0 a 0.5,0.5 0 1,0 -1,0  M685.49 346 L685.49 346 697.49 346 M691.49 352 L691.49 352 691.49 340" id="h1139284389" class="r"></path><path d="M 792 150 m -1, 0 a 1,1 0 1,0 2,0 a 1,1 0 1,0 -2,0 M 792 150 m -0.5, 0 a 0.5,0.5 0 1,0 1,0 a 0.5,0.5 0 1,0 -1,0  M792 150 L792 150 780 150 M 792 156 m -1, 0 a 1,1 0 1,0 2,0 a 1,1 0 1,0 -2,0 M 792 156 m -0.5, 0 a 0.5,0.5 0 1,0 1,0 a 0.5,0.5 0 1,0 -1,0  M792 156 L792 156 785 150 792 144 M 792 144 m -1, 0 a 1,1 0 1,0 2,0 a 1,1 0 1,0 -2,0 M 792 144 m -0.5, 0 a 0.5,0.5 0 1,0 1,0 a 0.5,0.5 0 1,0 -1,0  M780 150 Q 753.54 150, 727.08 133 T 674.16 116 M 662.16 116 m -1, 0 a 1,1 0 1,0 2,0 a 1,1 0 1,0 -2,0 M 662.16 116 m -0.5, 0 a 0.5,0.5 0 1,0 1,0 a 0.5,0.5 0 1,0 -1,0  M662.16 116 L662.16 116 674.16 116 M668.16 122 L668.16 122 668.16 110" id="h1607168654" class="r"></path><path d="M 376.16 201 m -1, 0 a 1,1 0 1,0 2,0 a 1,1 0 1,0 -2,0 M 376.16 201 m -0.5, 0 a 0.5,0.5 0 1,0 1,0 a 0.5,0.5 0 1,0 -1,0  M376.16 201 L376.16 201 388.16 201 M 376.16 207 m -1, 0 a 1,1 0 1,0 2,0 a 1,1 0 1,0 -2,0 M 376.16 207 m -0.5, 0 a 0.5,0.5 0 1,0 1,0 a 0.5,0.5 0 1,0 -1,0  M376.16 207 L376.16 207 383.16 201 376.16 195 M 376.16 195 m -1, 0 a 1,1 0 1,0 2,0 a 1,1 0 1,0 -2,0 M 376.16 195 m -0.5, 0 a 0.5,0.5 0 1,0 1,0 a 0.5,0.5 0 1,0 -1,0  M388.16 201 Q 411.87 201, 435.58 158.5 T 483 116 M 495 116 m -1, 0 a 1,1 0 1,0 2,0 a 1,1 0 1,0 -2,0 M 495 116 m -0.5, 0 a 0.5,0.5 0 1,0 1,0 a 0.5,0.5 0 1,0 -1,0  M495 116 L495 116 483 116 M489 122 L489 122 489 110" id="h1397587031" class="r"></path><path d="M 376.16 226 m -1, 0 a 1,1 0 1,0 2,0 a 1,1 0 1,0 -2,0 M 376.16 226 m -0.5, 0 a 0.5,0.5 0 1,0 1,0 a 0.5,0.5 0 1,0 -1,0  M376.16 226 L376.16 226 388.16 226 M 376.16 232 m -1, 0 a 1,1 0 1,0 2,0 a 1,1 0 1,0 -2,0 M 376.16 232 m -0.5, 0 a 0.5,0.5 0 1,0 1,0 a 0.5,0.5 0 1,0 -1,0  M376.16 232 L376.16 232 383.16 226 376.16 220 M 376.16 220 m -1, 0 a 1,1 0 1,0 2,0 a 1,1 0 1,0 -2,0 M 376.16 220 m -0.5, 0 a 0.5,0.5 0 1,0 1,0 a 0.5,0.5 0 1,0 -1,0  M388.16 226 Q 417.37 226, 446.58 286 T 505 346 M 517 346 m -1, 0 a 1,1 0 1,0 2,0 a 1,1 0 1,0 -2,0 M 517 346 m -0.5, 0 a 0.5,0.5 0 1,0 1,0 a 0.5,0.5 0 1,0 -1,0  M517 346 L517 346 505 346 M511 352 L511 352 511 340" id="h2286254435" class="r"></path><path d="M 418.04 427 m -1, 0 a 1,1 0 1,0 2,0 a 1,1 0 1,0 -2,0 M 418.04 427 m -0.5, 0 a 0.5,0.5 0 1,0 1,0 a 0.5,0.5 0 1,0 -1,0  M418.04 427 L418.04 427 430.04 427 M424.04 433 L424.04 433 424.04 421 M430.04 427 Q 448.78 427, 467.52 386.5 T 505 346 M 517 346 m -1, 0 a 1,1 0 1,0 2,0 a 1,1 0 1,0 -2,0 M 517 346 m -0.5, 0 a 0.5,0.5 0 1,0 1,0 a 0.5,0.5 0 1,0 -1,0  M517 346 L517 346 505 346 M511 352 L511 352 511 340" id="h3177548053" class="r"></path></g><g class="hrs"></g><g class="ts"><svg width="167.16" height="100" x="792" y="68" id="h1090417462" class="t"><rect height="40" width="167.16" class="th"></rect><text x="13" y="25" class="tht">dept_emp</text><rect height="60" width="167.16" class="t-bg"></rect><text x="13" y="61" class="tf pk">emp_no<tspan x="154.16" class="ty">int</tspan></text><path d="M7,14A2,2 0 0,1 5,12A2,2 0 0,1 7,10A2,2 0 0,1 9,12A2,2 0 0,1 7,14M12.65,10C11.83,7.67 9.61,6 7, 6A6, 6 0 0, 0 1, 12A6, 6 0 0, 0 7, 18C9.61, 18 11.83, 16.33 12.65, 14H17V18H21V14H23V10H12.65Z" class="i pk" transform="translate(121.486171875, 48) scale(0.65)"></path><text x="13" y="86" class="tf pk">dept_no<tspan x="154.16" class="ty">VARCHAR</tspan></text><path d="M7,14A2,2 0 0,1 5,12A2,2 0 0,1 7,10A2,2 0 0,1 9,12A2,2 0 0,1 7,14M12.65,10C11.83,7.67 9.61,6 7, 6A6, 6 0 0, 0 1, 12A6, 6 0 0, 0 7, 18C9.61, 18 11.83, 16.33 12.65, 14H17V18H21V14H23V10H12.65Z" class="i pk" transform="translate(76.37484375, 73) scale(0.65)"></path></svg><svg width="158.47" height="100" x="816" y="298" id="h311790747" class="t"><rect height="40" width="158.47" class="th"></rect><text x="13" y="25" class="tht">titles</text><rect height="60" width="158.47" class="t-bg"></rect><text x="13" y="61" class="tf pk">title_id<tspan x="145.47" class="ty">VARCHAR</tspan></text><path d="M7,14A2,2 0 0,1 5,12A2,2 0 0,1 7,10A2,2 0 0,1 9,12A2,2 0 0,1 7,14M12.65,10C11.83,7.67 9.61,6 7, 6A6, 6 0 0, 0 1, 12A6, 6 0 0, 0 7, 18C9.61, 18 11.83, 16.33 12.65, 14H17V18H21V14H23V10H12.65Z" class="i pk" transform="translate(67.68484375, 48) scale(0.65)"></path><text x="13" y="86" class="tf">title<tspan x="145.47" class="ty">VARCHAR</tspan></text></svg><svg width="168.49" height="225" x="517" y="289" id="h1639608377" class="t"><rect height="40" width="168.49" class="th"></rect><text x="13" y="25" class="tht">employees</text><rect height="185" width="168.49" class="t-bg"></rect><text x="13" y="61" class="tf pk">emp_no<tspan x="155.49" class="ty">int</tspan></text><path d="M7,14A2,2 0 0,1 5,12A2,2 0 0,1 7,10A2,2 0 0,1 9,12A2,2 0 0,1 7,14M12.65,10C11.83,7.67 9.61,6 7, 6A6, 6 0 0, 0 1, 12A6, 6 0 0, 0 7, 18C9.61, 18 11.83, 16.33 12.65, 14H17V18H21V14H23V10H12.65Z" class="i pk" transform="translate(122.81617187500001, 48) scale(0.65)"></path><text x="13" y="86" class="tf fk">emp_title_id<tspan x="155.49" class="ty">VARCHAR</tspan></text><text x="13" y="111" class="tf">birth_date<tspan x="155.49" class="ty">VARCHAR</tspan></text><text x="13" y="136" class="tf">first_name<tspan x="155.49" class="ty">VARCHAR</tspan></text><text x="13" y="161" class="tf">last_name<tspan x="155.49" class="ty">VARCHAR</tspan></text><text x="13" y="186" class="tf">sex<tspan x="155.49" class="ty">VARCHAR</tspan></text><text x="13" y="211" class="tf">hire_date<tspan x="155.49" class="ty">VARCHAR</tspan></text></svg><svg width="122.04" height="100" x="296" y="370" id="h2472833127" class="t"><rect height="40" width="122.04" class="th"></rect><text x="13" y="25" class="tht">salaries</text><rect height="60" width="122.04" class="t-bg"></rect><text x="13" y="61" class="tf pk">emp_no<tspan x="109.04" class="ty">int</tspan></text><path d="M7,14A2,2 0 0,1 5,12A2,2 0 0,1 7,10A2,2 0 0,1 9,12A2,2 0 0,1 7,14M12.65,10C11.83,7.67 9.61,6 7, 6A6, 6 0 0, 0 1, 12A6, 6 0 0, 0 7, 18C9.61, 18 11.83, 16.33 12.65, 14H17V18H21V14H23V10H12.65Z" class="i pk" transform="translate(76.366171875, 48) scale(0.65)"></path><text x="13" y="86" class="tf">salary<tspan x="109.04" class="ty">int</tspan></text></svg><svg width="167.16" height="100" x="495" y="59" id="h475896179" class="t"><rect height="40" width="167.16" class="th"></rect><text x="13" y="25" class="tht">departments</text><rect height="60" width="167.16" class="t-bg"></rect><text x="13" y="61" class="tf pk">dept_no<tspan x="154.16" class="ty">VARCHAR</tspan></text><path d="M7,14A2,2 0 0,1 5,12A2,2 0 0,1 7,10A2,2 0 0,1 9,12A2,2 0 0,1 7,14M12.65,10C11.83,7.67 9.61,6 7, 6A6, 6 0 0, 0 1, 12A6, 6 0 0, 0 7, 18C9.61, 18 11.83, 16.33 12.65, 14H17V18H21V14H23V10H12.65Z" class="i pk" transform="translate(76.37484375, 48) scale(0.65)"></path><text x="13" y="86" class="tf">dept_name<tspan x="154.16" class="ty">VARCHAR</tspan></text></svg><svg width="167.16" height="100" x="209" y="144" id="h1676682957" class="t"><rect height="40" width="167.16" class="th"></rect><text x="13" y="25" class="tht">dept_manager</text><rect height="60" width="167.16" class="t-bg"></rect><text x="13" y="61" class="tf pk">dept_no<tspan x="154.16" class="ty">VARCHAR</tspan></text><path d="M7,14A2,2 0 0,1 5,12A2,2 0 0,1 7,10A2,2 0 0,1 9,12A2,2 0 0,1 7,14M12.65,10C11.83,7.67 9.61,6 7, 6A6, 6 0 0, 0 1, 12A6, 6 0 0, 0 7, 18C9.61, 18 11.83, 16.33 12.65, 14H17V18H21V14H23V10H12.65Z" class="i pk" transform="translate(76.37484375, 48) scale(0.65)"></path><text x="13" y="86" class="tf pk">emp_no<tspan x="154.16" class="ty">int</tspan></text><path d="M7,14A2,2 0 0,1 5,12A2,2 0 0,1 7,10A2,2 0 0,1 9,12A2,2 0 0,1 7,14M12.65,10C11.83,7.67 9.61,6 7, 6A6, 6 0 0, 0 1, 12A6, 6 0 0, 0 7, 18C9.61, 18 11.83, 16.33 12.65, 14H17V18H21V14H23V10H12.65Z" class="i pk" transform="translate(121.486171875, 73) scale(0.65)"></path></svg></g></g><text class="qdbd-link" x="10" y="20">www.quickdatabasediagrams.com</text></svg>